<?xml version="1.0" encoding="UTF-8"?>
<svg xmlns="http://www.w3.org/2000/svg" viewBox="0 0 128 128" width="128" height="128">
  <defs>
    <linearGradient id="bgGradient" x1="0%" y1="0%" x2="100%" y2="100%">
      <stop offset="0%" style="stop-color:#4A90D9;stop-opacity:1" />
      <stop offset="100%" style="stop-color:#2E6BB8;stop-opacity:1" />
    </linearGradient>
    <filter id="shadow" x="-20%" y="-20%" width="140%" height="140%">
      <feDropShadow dx="2" dy="2" stdDeviation="3" flood-color="#000" flood-opacity="0.3"/>
    </filter>
  </defs>
  
  <rect x="8" y="8" width="112" height="112" rx="24" ry="24" fill="url(#bgGradient)" filter="url(#shadow)"/>
  <rect x="24" y="28" width="80" height="56" rx="4" ry="4" fill="#FFFFFF" opacity="0.95"/>
  <rect x="28" y="32" width="72" height="48" rx="2" ry="2" fill="#2C3E50"/>
  <rect x="36" y="40" width="56" height="32" fill="none" stroke="#FFFFFF" stroke-width="2" stroke-dasharray="4,2"/>
  <circle cx="36" cy="40" r="3" fill="#FFFFFF"/>
  <circle cx="92" cy="40" r="3" fill="#FFFFFF"/>
  <circle cx="36" cy="72" r="3" fill="#FFFFFF"/>
  <circle cx="92" cy="72" r="3" fill="#FFFFFF"/>
  <path d="M54 84 L74 84 L78 94 L50 94 Z" fill="#FFFFFF" opacity="0.95"/>
  <rect x="46" y="94" width="36" height="6" rx="2" ry="2" fill="#FFFFFF" opacity="0.95"/>
  <g transform="translate(80, 82) scale(0.5)">
    <ellipse cx="12" cy="8" rx="7" ry="3" transform="rotate(45, 12, 8)" fill="#F5F5F5" stroke="#9E9E9E" stroke-width="1.5"/>
    <ellipse cx="28" cy="24" rx="7" ry="3" transform="rotate(45, 28, 24)" fill="#F5F5F5" stroke="#9E9E9E" stroke-width="1.5"/>
    <circle cx="20" cy="16" r="2.5" fill="#757575"/>
  </g>
</svg>
